<svg width="20" height="20" viewBox="0 0 20 20" fill="none" xmlns="http://www.w3.org/2000/svg">
<g clip-path="url(#clip0_42_554)">
<path d="M16.9307 3.64157C15.6341 3.04643 14.2658 2.62206 12.8599 2.37907C12.8471 2.37657 12.8338 2.37821 12.822 2.38375C12.8101 2.38929 12.8004 2.39845 12.7941 2.4099C12.6191 2.7224 12.4241 3.1299 12.2874 3.45157C10.7719 3.22139 9.23039 3.22139 7.71491 3.45157C7.56282 3.09515 7.39117 2.7474 7.20075 2.4099C7.19418 2.39871 7.18437 2.38977 7.17262 2.38426C7.16086 2.37876 7.14772 2.37695 7.13491 2.37907C5.72895 2.62155 4.36052 3.04595 3.06408 3.64157C3.0531 3.64617 3.0438 3.65402 3.03741 3.66407C0.444079 7.53823 -0.266754 11.3166 0.0824123 15.0474C0.0832604 15.0567 0.085989 15.0656 0.0904309 15.0738C0.0948728 15.082 0.100935 15.0892 0.108246 15.0949C1.61791 16.2134 3.30667 17.0672 5.10241 17.6199C5.11507 17.6236 5.12854 17.6233 5.14104 17.6191C5.15355 17.615 5.16448 17.6071 5.17241 17.5966C5.55847 17.072 5.9002 16.5162 6.19408 15.9349C6.19818 15.9269 6.20054 15.9182 6.20102 15.9093C6.20149 15.9003 6.20007 15.8914 6.19684 15.8831C6.19361 15.8747 6.18865 15.8671 6.18229 15.8609C6.17592 15.8546 6.1683 15.8497 6.15991 15.8466C5.6211 15.6404 5.09947 15.3918 4.59991 15.1032C4.59075 15.0979 4.58305 15.0905 4.57748 15.0815C4.57191 15.0725 4.56865 15.0622 4.56799 15.0517C4.56733 15.0411 4.56929 15.0306 4.5737 15.021C4.5781 15.0113 4.58482 15.003 4.59325 14.9966C4.69845 14.9179 4.80181 14.8367 4.90325 14.7532C4.91212 14.746 4.92282 14.7414 4.93415 14.74C4.94548 14.7385 4.957 14.7402 4.96741 14.7449C8.24075 16.2391 11.7841 16.2391 15.0191 14.7449C15.0296 14.74 15.0413 14.7382 15.0528 14.7397C15.0643 14.7412 15.0751 14.7459 15.0841 14.7532C15.1841 14.8349 15.2891 14.9182 15.3949 14.9966C15.4032 15.0029 15.4099 15.0111 15.4143 15.0205C15.4188 15.03 15.4208 15.0404 15.4203 15.0508C15.4198 15.0612 15.4168 15.0714 15.4115 15.0804C15.4062 15.0894 15.3988 15.0969 15.3899 15.1024C14.8915 15.3937 14.3694 15.6424 13.8291 15.8457C13.8207 15.849 13.813 15.8539 13.8067 15.8603C13.8003 15.8667 13.7953 15.8743 13.7921 15.8827C13.7889 15.8911 13.7875 15.9001 13.788 15.9091C13.7884 15.9181 13.7908 15.9269 13.7949 15.9349C14.0949 16.5166 14.4382 17.0699 14.8157 17.5957C14.8235 17.6065 14.8344 17.6145 14.847 17.6186C14.8596 17.6228 14.8731 17.623 14.8857 17.6191C16.6845 17.0681 18.376 16.2142 19.8874 15.0941C19.8948 15.0889 19.9009 15.0822 19.9055 15.0744C19.9101 15.0667 19.913 15.058 19.9141 15.0491C20.3307 10.7349 19.2157 6.9874 16.9566 3.66573C16.9513 3.65453 16.9421 3.64564 16.9307 3.64073V3.64157ZM6.68325 12.7749C5.69741 12.7749 4.88575 11.8707 4.88575 10.7591C4.88575 9.64823 5.68241 8.74323 6.68325 8.74323C7.69158 8.74323 8.49658 9.65657 8.48075 10.7599C8.48075 11.8707 7.68408 12.7749 6.68325 12.7749ZM13.3291 12.7749C12.3432 12.7749 11.5316 11.8707 11.5316 10.7591C11.5316 9.64823 12.3274 8.74323 13.3291 8.74323C14.3374 8.74323 15.1424 9.65657 15.1266 10.7599C15.1266 11.8707 14.3382 12.7749 13.3291 12.7749Z" fill="white"/>
</g>
<defs>
<clipPath id="clip0_42_554">
<rect width="20" height="20" fill="white"/>
</clipPath>
</defs>
</svg>
