<svg width="133" height="87" viewBox="0 0 133 87" fill="none" xmlns="http://www.w3.org/2000/svg">
<path d="M14.3367 73.7789C14.3367 73.1049 14.3882 72.4827 14.6461 72.0161C14.8524 71.5495 15.1618 71.1865 15.5228 70.8755C15.8838 70.5644 16.3479 70.357 16.9152 70.2533C17.4309 70.0977 18.1013 70.0459 18.7717 70.0459C19.2359 70.0459 19.6484 70.0459 20.1126 70.0977C20.5767 70.1496 20.9377 70.2533 21.2987 70.3051C21.6597 70.357 22.1238 70.5125 22.4848 70.6162L21.6597 72.742C21.505 72.5864 21.2987 72.5346 21.0924 72.379C20.8861 72.2235 20.6283 72.1716 20.3704 72.0679C20.1641 72.0161 19.8547 71.9124 19.6484 71.8606C19.4421 71.8087 19.1843 71.8087 18.978 71.8087C18.8233 71.8087 18.6686 71.8087 18.5139 71.8606C18.3592 71.9124 18.2044 72.0161 18.0497 72.1716C17.895 72.3272 17.8435 72.5346 17.7403 72.7938C17.5856 73.0012 17.534 73.416 17.534 73.7789C17.534 74.1418 17.5856 74.4529 17.6887 74.764C17.7403 75.0751 17.8435 75.2306 17.9982 75.3862C18.1529 75.5417 18.3076 75.5936 18.4623 75.6973C18.617 75.7491 18.7717 75.7491 18.9264 75.7491C19.1327 75.7491 19.3906 75.7491 19.5968 75.6973C19.8031 75.6454 20.061 75.5417 20.3188 75.4899C20.5251 75.438 20.783 75.2825 21.0408 75.1788C21.2471 75.0233 21.505 74.9714 21.6081 74.8159L22.4848 77.0453C22.1238 77.2008 21.7628 77.2527 21.2987 77.3564C20.9377 77.4082 20.5767 77.5119 20.1126 77.5638C19.6484 77.6156 19.2359 77.6156 18.7717 77.6156C18.1013 77.6156 17.534 77.5638 16.9152 77.4082C16.3995 77.2527 15.8838 77.0972 15.5228 76.7861C15.1618 76.475 14.8524 76.112 14.6461 75.6454C14.4398 75.0232 14.3367 74.4529 14.3367 73.7789Z" fill="white"/>
<path d="M23.9804 73.8827C23.9804 73.5197 23.9804 73.105 23.9804 72.7939C23.9804 72.4309 23.9289 72.1199 23.9289 71.7051C23.9289 71.394 23.8773 71.0829 23.7742 70.7718C23.671 70.4607 23.6194 70.3052 23.6194 70.1497H28.5186C29.0859 70.1497 29.6532 70.2015 30.0142 70.357C30.4783 70.5126 30.7362 70.6681 31.0456 70.8755C31.355 71.0829 31.5097 71.3421 31.6128 71.6532C31.7676 71.9643 31.8191 72.2754 31.8191 72.5865C31.8191 72.7939 31.8191 73.0531 31.7676 73.2605C31.716 73.4679 31.6129 73.7271 31.4581 73.8827C31.3034 74.0901 31.1487 74.2456 30.9424 74.4012C30.7362 74.5567 30.5814 74.7122 30.272 74.7641C30.5814 75.2307 30.9424 75.6973 31.3034 76.0603C31.6644 76.5269 32.0254 76.838 32.438 77.2009H28.2092C28.2092 76.838 28.0545 76.3714 27.8998 75.9566C27.6935 75.5936 27.4356 75.1789 27.2294 74.8159C27.2294 75.0233 27.2294 75.2826 27.2294 75.49C27.2294 75.6973 27.2294 75.9566 27.2809 76.1121C27.3325 76.2677 27.3325 76.4751 27.3325 76.7343C27.3325 76.8898 27.3841 77.0454 27.4872 77.2009H23.5679C23.6194 77.0454 23.7226 76.838 23.7742 76.5787C23.8257 76.3714 23.8257 76.0603 23.9289 75.7492C23.9289 75.4381 23.9804 75.127 23.9804 74.7641C23.9804 74.5567 23.9804 74.2456 23.9804 73.8827ZM27.1778 71.9643C27.1778 72.1717 27.1778 72.4309 27.1778 72.6383C27.1778 72.8457 27.1778 73.105 27.1778 73.4161H28.1576C28.3123 73.4161 28.4671 73.3642 28.6218 73.2087C28.7765 73.0531 28.7765 72.8976 28.7765 72.6902C28.7765 72.4828 28.7249 72.3272 28.6218 72.1717C28.4671 72.0162 28.4155 71.9643 28.1576 71.9643H27.1778Z" fill="white"/>
<path d="M42.0299 73.779C42.0299 75.0233 41.6689 76.0084 40.8953 76.6306C40.1734 77.2528 39.0388 77.5639 37.5433 77.5639C36.0477 77.5639 34.9647 77.2528 34.1912 76.6306C33.4692 76.0084 33.0566 75.0233 33.0566 73.779C33.0566 72.5347 33.4176 71.5496 34.1912 70.9274C34.9132 70.3052 36.0477 69.9941 37.5433 69.9941C39.0388 69.9941 40.1218 70.3052 40.8953 70.9274C41.6689 71.5496 42.0299 72.4828 42.0299 73.779ZM36.4087 73.779C36.4087 73.9864 36.4087 74.2975 36.4603 74.5567C36.4603 74.7641 36.5119 75.0233 36.615 75.1789C36.6666 75.3344 36.8213 75.49 36.976 75.5418C37.1307 75.5937 37.337 75.6974 37.5433 75.6974C37.7495 75.6974 38.0074 75.6455 38.1105 75.5418C38.2653 75.49 38.42 75.3344 38.4715 75.1789C38.5231 75.0233 38.6262 74.8159 38.6262 74.5567C38.6262 74.3493 38.6778 74.0901 38.6778 73.779C38.6778 73.5716 38.6778 73.2605 38.6262 73.0013C38.6262 72.7939 38.5747 72.5347 38.4715 72.3791C38.42 72.2236 38.2653 72.068 38.1105 72.0162C37.9558 71.9643 37.7495 71.8606 37.5433 71.8606C37.2338 71.8606 37.0791 71.9125 36.976 72.0162C36.8213 72.068 36.6666 72.2236 36.615 72.3791C36.5634 72.5347 36.4603 72.7421 36.4603 73.0013C36.4087 73.2605 36.4087 73.4679 36.4087 73.779Z" fill="white"/>
<path d="M42.752 73.7789C42.752 73.1049 42.8035 72.4827 43.0614 72.0161C43.2677 71.5495 43.5771 71.1865 43.9381 70.8755C44.2991 70.5644 44.7632 70.357 45.3305 70.2533C45.8462 70.0977 46.5166 70.0459 47.187 70.0459C47.6511 70.0459 48.0637 70.0459 48.5278 70.0977C48.992 70.1496 49.353 70.2533 49.714 70.3051C50.0749 70.357 50.5391 70.5125 50.9001 70.6162L50.0749 72.742C49.9202 72.5864 49.714 72.5346 49.5077 72.379C49.3014 72.2235 49.0435 72.1716 48.7857 72.0679C48.5794 72.0161 48.27 71.9124 48.0637 71.8606C47.8574 71.8087 47.5996 71.8087 47.3933 71.8087C47.2386 71.8087 47.0839 71.8087 46.9292 71.8606C46.7744 71.9124 46.6197 72.0161 46.465 72.1716C46.3103 72.3272 46.2587 72.5346 46.1556 72.7938C46.104 73.0012 46.0009 73.416 46.0009 73.7789C46.0009 74.1418 46.0525 74.4529 46.1556 74.764C46.2072 75.0751 46.3103 75.2306 46.465 75.3862C46.6197 75.5417 46.7744 75.5936 46.9292 75.6973C47.0839 75.7491 47.2386 75.7491 47.3933 75.7491C47.5996 75.7491 47.8574 75.7491 48.0637 75.6973C48.27 75.6454 48.5278 75.5417 48.7857 75.4899C48.992 75.438 49.2498 75.2825 49.5077 75.1788C49.714 75.0233 49.9718 74.9714 50.0749 74.8159L50.9516 77.0453C50.5907 77.2008 50.2297 77.2527 49.7655 77.3564C49.4045 77.4082 49.0435 77.5119 48.5794 77.5638C48.1153 77.6156 47.7027 77.6156 47.2386 77.6156C46.5682 77.6156 46.0009 77.5638 45.382 77.4082C44.8663 77.2527 44.3506 77.0972 43.9896 76.7861C43.6287 76.475 43.3192 76.112 43.1129 75.6454C42.8551 75.0232 42.752 74.4529 42.752 73.7789Z" fill="white"/>
<path d="M54.3553 76.3195C54.3553 76.3714 54.3553 76.5269 54.3037 76.6824C54.2521 76.838 54.2521 76.8898 54.0974 77.0454C54.0459 77.0972 53.8911 77.2528 53.7364 77.3565C53.5817 77.4083 53.427 77.4083 53.2207 77.4083C53.0144 77.4083 52.8597 77.4083 52.705 77.3565C52.5503 77.3046 52.4987 77.2009 52.344 77.0454C52.2925 76.9935 52.1893 76.838 52.1378 76.6824C52.0862 76.5269 52.0862 76.475 52.0862 76.3195C52.0862 76.2677 52.0862 76.1121 52.1378 75.9566C52.1893 75.801 52.1893 75.7492 52.344 75.5936C52.3956 75.5418 52.5503 75.3863 52.705 75.2826C52.8597 75.2307 53.0144 75.2307 53.2207 75.2307C53.427 75.2307 53.5817 75.2307 53.7364 75.2826C53.8911 75.3344 53.9427 75.4381 54.0974 75.5936C54.149 75.6455 54.2521 75.801 54.3037 75.9566C54.3553 76.1121 54.3553 76.2158 54.3553 76.3195Z" fill="white"/>
<path d="M55.4897 73.7789C55.4897 73.1049 55.5413 72.4827 55.7992 72.0161C56.0054 71.5495 56.3149 71.1865 56.6759 70.8755C57.0369 70.5644 57.501 70.357 58.0683 70.2533C58.584 70.0977 59.2544 70.0459 59.9248 70.0459C60.3889 70.0459 60.8015 70.0459 61.2656 70.0977C61.7298 70.1496 62.0908 70.2533 62.4518 70.3051C62.8127 70.357 63.2769 70.5125 63.6379 70.6162L62.8127 72.742C62.658 72.5864 62.4518 72.5346 62.2455 72.379C62.0392 72.2235 61.7813 72.1716 61.5235 72.0679C61.3172 72.0161 61.0078 71.9124 60.8015 71.8606C60.5952 71.8087 60.3374 71.8087 60.1311 71.8087C59.9764 71.8087 59.8217 71.8087 59.667 71.8606C59.5122 71.9124 59.3575 72.0161 59.2028 72.1716C59.0481 72.3272 58.9965 72.5346 58.8934 72.7938C58.8418 73.0012 58.7387 73.416 58.7387 73.7789C58.7387 74.1418 58.7903 74.4529 58.8934 74.764C58.945 74.9714 59.0481 75.2306 59.2028 75.3862C59.3575 75.5417 59.5122 75.5936 59.667 75.6973C59.8217 75.7491 59.9764 75.7491 60.1311 75.7491C60.3374 75.7491 60.5952 75.7491 60.8015 75.6973C61.0078 75.6454 61.2656 75.5417 61.5235 75.4899C61.7298 75.438 61.9876 75.2825 62.2455 75.1788C62.4518 75.0233 62.7096 74.9714 62.8127 74.8159L63.6894 77.0453C63.3285 77.2008 62.9675 77.2527 62.5033 77.3564C62.1423 77.4082 61.7813 77.5119 61.3172 77.5638C60.8531 77.6156 60.4405 77.6156 59.9764 77.6156C59.306 77.6156 58.7387 77.5638 58.1198 77.4082C57.6041 77.2527 57.0884 77.0972 56.7274 76.7861C56.3664 76.475 56.057 76.112 55.8507 75.6454C55.5413 75.0232 55.4897 74.4529 55.4897 73.7789Z" fill="white"/>
<path d="M71.064 70.2014C71.064 70.4088 71.1156 70.7199 71.2187 71.1347C71.2703 71.4976 71.425 71.9642 71.5797 72.4309C71.7344 72.8975 71.9407 73.416 72.0954 73.8826C72.3017 74.4011 72.5595 74.8677 72.6627 75.3343C72.869 75.8009 73.1268 76.1639 73.23 76.5786C73.4362 76.9416 73.591 77.2008 73.7457 77.3564H69.62C69.62 77.2008 69.62 77.0453 69.62 76.8897C69.62 76.7342 69.5685 76.5268 69.5685 76.3713H67.9182C67.8666 76.5787 67.8666 76.8379 67.8666 76.9934C67.8666 77.149 67.8666 77.3045 67.9182 77.4601H64.3599C64.4114 77.3045 64.5661 77.149 64.7209 76.9416C64.8756 76.7342 65.0303 76.4231 65.185 76.112C65.3397 75.8009 65.4944 75.4899 65.6491 75.1269C65.8038 74.764 65.9585 74.4529 66.1133 74.0381C66.268 73.6752 66.4227 73.2604 66.5774 72.8975C66.7321 72.5346 66.7837 72.2235 66.9384 71.8087C66.99 71.4976 67.0931 71.1865 67.1447 70.8754C67.1962 70.668 67.1962 70.4088 67.1962 70.2533H71.064V70.2014ZM69.259 74.6084C69.259 74.6084 69.259 74.5566 69.2075 74.4011C69.2075 74.3492 69.1559 74.1937 69.1559 74.09C69.1559 74.0381 69.1043 73.8826 69.1043 73.7789C69.1043 73.727 69.0528 73.6233 69.0528 73.6233C69.0528 73.6752 69.0012 73.6752 69.0012 73.8307C69.0012 73.9863 68.9496 73.9863 68.9496 74.1418C68.9496 74.1937 68.8981 74.3492 68.8981 74.4529C68.8981 74.5048 68.8465 74.6084 68.8465 74.6603H69.4138V74.6084H69.259Z" fill="white"/>
<path d="M79.728 70.2014C80.2437 70.2014 80.7594 70.2533 81.2235 70.4088C81.6877 70.5644 81.9455 70.7199 82.255 70.9273C82.5644 71.1347 82.7191 71.3939 82.8222 71.705C82.9769 72.0161 83.0285 72.3272 83.0285 72.6383C83.0285 73.0012 82.9769 73.3123 82.8222 73.6234C82.6675 73.9344 82.4612 74.2455 82.1518 74.4011C81.8424 74.6085 81.5845 74.764 81.1204 74.9195C80.6563 75.0751 80.2953 75.1269 79.7796 75.1269H78.3872C78.3872 75.5936 78.4387 75.9565 78.5419 76.3713C78.5935 76.7342 78.6966 77.0453 78.8513 77.3564H74.8804C74.9319 77.2008 75.0351 76.9934 75.0867 76.7342C75.1382 76.5268 75.1382 76.2157 75.2414 75.9046C75.2414 75.5936 75.2929 75.2825 75.2929 74.9195C75.2929 74.6085 75.2929 74.2455 75.2929 73.9344C75.2929 73.5715 75.2929 73.1567 75.2929 72.8456C75.2929 72.4827 75.2414 72.1716 75.2414 71.7568C75.2414 71.4458 75.1898 71.1347 75.0867 70.8236C75.0351 70.5125 74.9319 70.357 74.8804 70.2014H79.7796H79.728ZM79.367 73.416C79.5217 73.416 79.6764 73.3641 79.8311 73.2086C79.9859 73.053 79.9859 72.8975 79.9859 72.6901C79.9859 72.4827 79.9343 72.3272 79.8311 72.1716C79.6764 72.0161 79.6249 71.9642 79.367 71.9642H78.3872C78.3872 72.0161 78.3872 72.1716 78.3872 72.2753C78.3872 72.3272 78.3872 72.4827 78.3872 72.5864C78.3872 72.6383 78.3872 72.7938 78.3872 72.9493C78.3872 73.1049 78.3872 73.2604 78.3872 73.416H79.367Z" fill="white"/>
<path d="M87.9276 70.2014C87.8761 70.357 87.7729 70.5644 87.7729 70.8236C87.7214 71.1347 87.7214 71.3421 87.6182 71.7568C87.5666 72.1198 87.5667 72.4309 87.5667 72.8456C87.5667 73.2604 87.5667 73.6234 87.5667 73.9344C87.5667 74.2455 87.5667 74.6085 87.5667 74.9195C87.5667 75.2306 87.6182 75.5936 87.6182 75.9046C87.6182 76.2157 87.6698 76.5268 87.7729 76.7342C87.8245 76.9416 87.9276 77.2008 87.9792 77.3564H84.0083C84.0599 77.2008 84.163 76.9934 84.2146 76.7342C84.2662 76.5268 84.2662 76.2157 84.3693 75.9046C84.3693 75.5936 84.4209 75.2825 84.4209 74.9195C84.4209 74.6085 84.4209 74.2455 84.4209 73.9344C84.4209 73.5715 84.4209 73.1567 84.4209 72.8456C84.4209 72.4827 84.3693 72.1716 84.3693 71.7568C84.3693 71.4458 84.3177 71.1347 84.2146 70.8236C84.1114 70.5125 84.0599 70.357 84.0083 70.2014H87.9276Z" fill="white"/>
<path d="M96.6945 70.2014L97.5197 72.7938C97.0039 72.5864 96.4882 72.3272 96.0241 72.2753C95.56 72.1198 95.1474 72.0679 94.7864 71.9642C94.7864 72.2753 94.7864 72.5864 94.7348 72.8975C94.7348 73.2086 94.7348 73.5715 94.7348 73.8826C94.7348 74.1937 94.7348 74.5566 94.7348 74.8677C94.7348 75.1788 94.7864 75.5417 94.7864 75.8528C94.7864 76.1639 94.838 76.475 94.9411 76.6823C94.9927 76.8897 95.0958 77.149 95.1474 77.3045H91.1765C91.2281 77.149 91.3312 76.9416 91.3828 76.6823C91.4343 76.475 91.4343 76.1639 91.5375 75.8528C91.5375 75.5417 91.5891 75.2306 91.5891 74.8677C91.5891 74.5566 91.5891 74.1937 91.5891 73.8826C91.5891 73.6752 91.5891 73.5197 91.5891 73.3641C91.5891 73.2086 91.5891 73.053 91.5891 72.8975C91.5891 72.7419 91.5891 72.5864 91.5891 72.5346C91.5891 72.379 91.5891 72.2235 91.5891 72.0679C91.1249 72.1198 90.7124 72.2235 90.2482 72.379C89.7841 72.5346 89.2684 72.6901 88.7527 73.0012L89.5778 70.3051H96.6945V70.2014Z" fill="white"/>
<path d="M103.708 70.2014C103.708 70.4088 103.76 70.7199 103.863 71.1347C103.914 71.4976 104.069 71.9642 104.224 72.4309C104.378 72.8975 104.585 73.416 104.739 73.8826C104.946 74.4011 105.204 74.8677 105.307 75.3343C105.513 75.8009 105.771 76.1639 105.874 76.5786C106.08 76.9416 106.235 77.2008 106.39 77.3564H102.264C102.264 77.2008 102.264 77.0453 102.264 76.8897C102.264 76.7342 102.213 76.5268 102.213 76.3713H100.562C100.511 76.5787 100.511 76.8379 100.511 76.9934C100.511 77.149 100.511 77.3045 100.562 77.4601H97.0039C97.0555 77.3045 97.2102 77.149 97.3649 76.9416C97.5196 76.7342 97.6743 76.4231 97.829 76.112C97.9837 75.8009 98.1385 75.4899 98.2932 75.1269C98.4479 74.764 98.6026 74.4529 98.7573 74.0381C98.912 73.6752 99.0667 73.2604 99.2214 72.8975C99.3761 72.5346 99.4277 72.2235 99.5824 71.8087C99.634 71.4976 99.7371 71.1865 99.7887 70.8754C99.8403 70.668 99.8403 70.4088 99.8403 70.2533H103.708V70.2014ZM101.852 74.6084C101.852 74.6084 101.852 74.5566 101.8 74.4011C101.8 74.3492 101.748 74.1937 101.748 74.09C101.748 74.0381 101.697 73.8826 101.697 73.7789C101.697 73.727 101.645 73.6233 101.645 73.6233C101.645 73.6752 101.594 73.6752 101.594 73.8307C101.594 73.8826 101.542 73.9863 101.542 74.1418C101.542 74.1937 101.491 74.3492 101.491 74.4529C101.491 74.5048 101.439 74.6084 101.439 74.6603H102.006V74.6084H101.852Z" fill="white"/>
<path d="M111.444 70.2014C111.392 70.357 111.289 70.5644 111.289 70.8236C111.237 71.1347 111.237 71.4458 111.134 71.7568C111.134 72.0679 111.083 72.4309 111.083 72.8456C111.083 73.2604 111.083 73.6234 111.083 73.9863C111.083 74.1418 111.083 74.2974 111.083 74.4529C111.083 74.6085 111.083 74.6603 111.083 74.8158C111.083 74.9714 111.083 75.0232 111.083 75.1788C111.083 75.3343 111.083 75.3862 111.083 75.5417C111.444 75.5417 111.805 75.4899 112.269 75.4899C112.63 75.438 112.991 75.438 113.403 75.3343C113.764 75.2825 114.125 75.1788 114.435 75.1269C114.796 75.0751 115.105 74.9195 115.415 74.8158L114.693 77.4082H107.576C107.627 77.2527 107.731 77.0453 107.782 76.7861C107.834 76.5787 107.834 76.2676 107.937 75.9565C107.988 75.6454 107.988 75.3343 107.988 74.9714C107.988 74.6603 107.988 74.2974 107.988 73.9863C107.988 73.6234 107.988 73.2086 107.988 72.8975C107.988 72.5346 107.937 72.2235 107.937 71.8087C107.937 71.4458 107.885 71.1865 107.782 70.8754C107.731 70.5643 107.627 70.4088 107.576 70.2533H111.495V70.2014H111.444Z" fill="white"/>
<path d="M118.612 76.3195C118.612 76.3714 118.612 76.5269 118.56 76.6824C118.509 76.838 118.509 76.8898 118.354 77.0454C118.302 77.0972 118.148 77.2528 117.993 77.3565C117.838 77.4083 117.684 77.4083 117.477 77.4083C117.271 77.4083 117.116 77.4083 116.962 77.3565C116.807 77.3046 116.755 77.2009 116.601 77.0454C116.446 76.8898 116.446 76.838 116.394 76.6824C116.343 76.5269 116.343 76.475 116.343 76.3195C116.343 76.2677 116.343 76.1121 116.394 75.9566C116.446 75.801 116.446 75.7492 116.601 75.5936C116.755 75.4381 116.807 75.3863 116.962 75.2826C117.116 75.2307 117.271 75.2307 117.477 75.2307C117.684 75.2307 117.838 75.2307 117.993 75.2826C118.148 75.3344 118.199 75.4381 118.354 75.5936C118.406 75.6455 118.509 75.801 118.56 75.9566C118.612 76.1121 118.612 76.2158 118.612 76.3195Z" fill="white"/>
<path d="M28.2605 26.9606L36.9759 17.4725L56.1085 10.836L63.8441 12.5988L66.2163 9.38428L74.2613 18.5613C74.2613 18.5613 90.5059 23.1239 90.7122 23.2794C90.9185 23.4349 93.0845 25.6125 93.0845 25.6125L98.4478 26.5976L105.255 25.1977L113.197 25.1459L117.426 30.3825L114.796 33.9081L106.596 31.6787L92.8266 36.7597L81.739 29.7603L67.3508 34.9451L60.9045 30.2269L54.613 34.1674L42.8549 23.4868L28.2605 26.9606Z" fill="white"/>
<path d="M25.9915 29.7085L29.8592 38.0041L35.7898 42.0482L39.9155 25.6125L25.9915 29.7085Z" fill="white"/>
<path d="M41.8235 24.6274L37.3884 41.9963L53.1174 34.8932L41.8235 24.6274Z" fill="white"/>
<path d="M38.6777 43.4998L53.53 36.8115L60.2341 53.9212L48.6308 52.7287L38.6777 43.4998Z" fill="white"/>
<path d="M55.335 35.7227L60.6983 32.0415L65.3396 37.1226L81.0686 32.0415L91.9499 38.0558L105.565 35.0487L113.764 38.4187L91.9499 41.9962L77.1492 40.1297L66.2679 43.1369L61.5234 52.0546L55.335 35.7227Z" fill="white"/>
<path d="M24.2896 30.6418C24.1864 31.0048 16.5024 44.2777 16.5024 44.2777L28.3121 39.1967L24.2896 30.6418Z" fill="white"/>
<path d="M16.2446 48.1662L25.1663 42.6704L20.9375 51.4845L16.2446 48.1662Z" fill="white"/>
<path d="M28.8794 40.9075L24.8569 48.892L34.0365 44.5886L28.8794 40.9075Z" fill="white"/>
<path d="M26.8682 51.1732L34.0364 48.0105L33.4692 59.7799L26.8682 51.1732Z" fill="white"/>
<path d="M36.254 44.0183L35.7383 60.091L46.6712 53.0916" fill="white"/>
<path d="M38.3167 60.4541L48.5276 54.2324L60.6982 55.6842L38.3167 60.4541Z" fill="white"/>
<path d="M33.1597 12.0803L36.5117 16.0207L44.3504 13.221L33.1597 12.0803Z" fill="white"/>
<path d="M34.3973 17.6279L26.5586 26.442L20.3186 20.5832L34.3973 17.6279Z" fill="white"/>
</svg>
