<svg width="20" height="20" viewBox="0 0 20 20" fill="none" xmlns="http://www.w3.org/2000/svg">
<path d="M18.1621 4.6157C17.8935 4.73484 17.6173 4.8354 17.3351 4.91704C17.6692 4.53919 17.9239 4.0946 18.0794 3.60809C18.1143 3.49903 18.0782 3.37967 17.9885 3.30835C17.899 3.23697 17.7746 3.22842 17.676 3.28683C17.0767 3.64229 16.4301 3.89773 15.7522 4.04711C15.0692 3.37978 14.1417 3 13.1828 3C11.1586 3 9.5119 4.6467 9.5119 6.67075C9.5119 6.83016 9.52199 6.98869 9.54196 7.14501C7.03024 6.92448 4.69515 5.68994 3.09164 3.72298C3.03449 3.65288 2.94646 3.61509 2.85633 3.62232C2.76614 3.62938 2.68511 3.68024 2.63955 3.7584C2.31432 4.31645 2.14239 4.95471 2.14239 5.60411C2.14239 6.48861 2.45818 7.32781 3.01602 7.98356C2.8464 7.92481 2.6818 7.85139 2.5247 7.76419C2.44036 7.71725 2.33743 7.71796 2.25365 7.76601C2.1698 7.81405 2.11724 7.90242 2.11503 7.999C2.11464 8.01528 2.11464 8.03155 2.11464 8.04804C2.11464 9.3683 2.82522 10.5569 3.9116 11.2048C3.81826 11.1955 3.72499 11.182 3.63232 11.1643C3.53678 11.146 3.43854 11.1795 3.37412 11.2524C3.30958 11.3252 3.28823 11.4267 3.31796 11.5193C3.72008 12.7748 4.75538 13.6982 6.00697 13.9797C4.96891 14.6299 3.7818 14.9705 2.53563 14.9705C2.2756 14.9705 2.01409 14.9552 1.75814 14.9249C1.631 14.9098 1.50943 14.9849 1.46612 15.1058C1.42282 15.2268 1.46872 15.3616 1.57689 15.431C3.1778 16.4574 5.02892 17 6.93002 17C10.6673 17 13.0053 15.2376 14.3085 13.7592C15.9335 11.9157 16.8655 9.47553 16.8655 7.06453C16.8655 6.96381 16.8639 6.8621 16.8608 6.76071C17.502 6.27767 18.0539 5.69309 18.5031 5.02118C18.5713 4.91913 18.564 4.78427 18.4849 4.69033C18.406 4.59634 18.2744 4.56594 18.1621 4.6157Z" fill="white"/>
</svg>
