<svg width="20" height="20" viewBox="0 0 20 20" fill="none" xmlns="http://www.w3.org/2000/svg">
<path d="M19.1666 8.09165C19.2078 6.89886 18.947 5.715 18.4083 4.64999C18.0428 4.21299 17.5355 3.91808 16.9749 3.81665C14.6562 3.60626 12.3279 3.52002 9.99994 3.55832C7.68048 3.51829 5.36053 3.60174 3.04994 3.80832C2.59312 3.89142 2.17037 4.10569 1.83327 4.42499C1.08327 5.11665 0.999941 6.29999 0.916608 7.29999C0.795701 9.09796 0.795701 10.902 0.916608 12.7C0.940716 13.2628 1.02452 13.8215 1.16661 14.3667C1.26709 14.7875 1.47038 15.1769 1.75827 15.5C2.09766 15.8362 2.53026 16.0627 2.99994 16.15C4.79654 16.3717 6.60679 16.4637 8.41661 16.425C11.3333 16.4667 13.8916 16.425 16.9166 16.1917C17.3978 16.1097 17.8426 15.8829 18.1916 15.5417C18.4249 15.3082 18.5992 15.0226 18.6999 14.7083C18.998 13.7938 19.1443 12.8367 19.1333 11.875C19.1666 11.4083 19.1666 8.59165 19.1666 8.09165ZM8.11661 12.375V7.21665L13.0499 9.80832C11.6666 10.575 9.84161 11.4417 8.11661 12.375Z" fill="white"/>
</svg>
