<svg width="144" height="78" viewBox="0 0 144 78" fill="none" xmlns="http://www.w3.org/2000/svg">
<path fill-rule="evenodd" clip-rule="evenodd" d="M77.6451 52.837C77.6451 53.2237 78.0102 53.5137 78.3946 53.4159C84.6922 51.8145 89.3384 46.2507 89.3384 39.6333C89.3384 31.7651 82.7696 25.3867 74.6671 25.3867C66.5642 25.3867 59.9954 31.7651 59.9954 39.6333C59.9954 46.4027 64.8578 52.0695 71.3761 53.5201C71.7561 53.6046 72.1084 53.3162 72.1084 52.9366V49.5669C72.1084 49.2923 71.9196 49.0532 71.6513 48.9692C69.5874 48.3238 67.918 47.1804 66.6433 45.5394C65.2855 43.7789 64.6066 41.7389 64.6066 39.4195C64.6066 36.3549 65.7924 33.8445 68.1638 31.8883C70.1338 30.2675 72.3761 29.4572 74.8911 29.4572C78.1327 29.4572 80.748 30.5982 82.7369 32.8804C84.3439 34.7248 85.1466 36.8532 85.1466 39.2658C85.1466 41.6318 84.4342 43.7509 83.01 45.6232C81.8143 47.2045 80.1786 48.3198 78.1012 48.9691C77.8332 49.0529 77.6451 49.2919 77.6451 49.566V52.837ZM77.4586 41.5673C77.4586 41.23 77.1777 40.9565 76.8313 40.9565H72.9365C72.59 40.9565 72.3093 41.23 72.3093 41.5673V41.7982C72.3093 42.3147 71.7082 42.5724 71.405 42.1486C70.8603 41.3875 70.588 40.4871 70.588 39.4474C70.588 38.2644 71.0134 37.2398 71.8645 36.3735C72.7156 35.5072 73.7245 35.074 74.8911 35.074C76.0482 35.074 77.0523 35.5072 77.9032 36.3735C78.7543 37.2398 79.1798 38.2644 79.1798 39.4474C79.1798 40.4556 78.9107 41.3435 78.3722 42.1113C78.0698 42.5424 77.4586 42.2868 77.4586 41.7646V41.5673Z" fill="#40BCFF"/>
<path d="M19.0581 34.2559C19.0581 33.9186 19.3389 33.645 19.6853 33.645H24.8146C25.1611 33.645 25.4419 33.9186 25.4419 34.2559V42.4403C25.4419 42.8235 25.5296 43.1262 25.7048 43.3482C25.8799 43.5648 26.0947 43.6731 26.349 43.6731C26.609 43.6731 26.869 43.5564 27.1289 43.3232C27.3946 43.0844 27.5275 42.7902 27.5275 42.4403V34.2559C27.5275 33.9186 27.8082 33.645 28.1547 33.645H33.3604C33.7068 33.645 33.9876 33.9186 33.9876 34.2559V42.6819C33.9876 44.0756 33.6231 45.2833 32.8939 46.305C32.1705 47.3266 31.2209 48.0985 30.0453 48.6204C28.8754 49.1424 27.6433 49.4033 26.349 49.4033C25.4278 49.4033 24.5291 49.2617 23.6531 48.9785C22.7771 48.6898 21.9914 48.2623 21.2962 47.6959C20.6067 47.124 20.0613 46.416 19.66 45.572C19.2587 44.728 19.0581 43.7646 19.0581 42.6819V34.2559Z" fill="white"/>
<path d="M36.1187 48.5215C35.7723 48.5215 35.4915 48.248 35.4915 47.9106V38.7934C35.4915 37.5663 35.8391 36.5168 36.5343 35.6451C37.2351 34.7678 38.1591 34.107 39.3066 33.6628C40.4539 33.2186 41.669 32.9965 42.952 32.9965C44.2632 32.9965 45.5094 33.2298 46.6907 33.6961C47.8776 34.157 48.8355 34.8482 49.5646 35.77C50.2994 36.6917 50.6668 37.78 50.6668 39.0349V47.9106C50.6668 48.248 50.386 48.5215 50.0395 48.5215H44.5881C44.2416 48.5215 43.9608 48.248 43.9608 47.9106V39.4431C43.9608 39.1099 43.8647 38.8628 43.6727 38.7018C43.4861 38.5352 43.2713 38.4519 43.0282 38.4519C42.757 38.4519 42.497 38.5518 42.2483 38.7517C41.9996 38.946 41.8753 39.1765 41.8753 39.4431V47.9106C41.8753 48.248 41.5944 48.5215 41.248 48.5215H36.1187Z" fill="white"/>
<path d="M52.7896 48.5214C52.4432 48.5214 52.1624 48.2479 52.1624 47.9105V33.7822C52.1624 33.4447 52.4432 33.1713 52.7896 33.1713H58.1732C58.5196 33.1713 58.8005 33.4447 58.8005 33.7822V47.9105C58.8005 48.2479 58.5196 48.5214 58.1732 48.5214H52.7896Z" fill="white"/>
<path d="M90.5005 34.2559C90.5005 33.9186 90.7808 33.645 91.1275 33.645H96.2569C96.6028 33.645 96.8839 33.9186 96.8839 34.2559V42.4403C96.8839 42.8235 96.9718 43.1262 97.1467 43.3482C97.3216 43.5648 97.5365 43.6731 97.7913 43.6731C98.0509 43.6731 98.3113 43.5564 98.5708 43.3232C98.8368 43.0844 98.9694 42.7902 98.9694 42.4403V34.2559C98.9694 33.9186 99.2506 33.645 99.5964 33.645H104.803C105.149 33.645 105.43 33.9186 105.43 34.2559V42.6819C105.43 44.0756 105.065 45.2833 104.336 46.305C103.612 47.3266 102.663 48.0985 101.488 48.6204C100.318 49.1424 99.0852 49.4033 97.7913 49.4033C96.8695 49.4033 95.971 49.2617 95.0948 48.9785C94.2194 48.6898 93.4334 48.2623 92.7385 47.6959C92.0484 47.124 91.5037 46.416 91.1019 45.572C90.701 44.728 90.5005 43.7646 90.5005 42.6819V34.2559Z" fill="white"/>
<path d="M122.9 38.2941C123.028 38.5755 122.906 38.9021 122.63 39.0503L115.743 42.7429C115.443 42.9034 115.067 42.801 114.897 42.5127L113.885 40.8033C113.708 40.5055 113.819 40.1249 114.129 39.9612L116.06 38.9426C116.427 38.7485 116.484 38.2591 116.084 38.141C115.893 38.0848 115.688 38.0566 115.469 38.0566C114.769 38.0566 114.07 38.3647 113.37 38.957C113.226 39.0754 112.575 39.5493 112.382 40.0468C112.262 40.331 112.286 40.5917 112.31 40.7575C112.335 40.9707 112.985 42.7001 113.539 43.3161C114.118 43.9558 114.769 44.2638 115.541 44.2638C116.663 44.2638 117.882 43.6568 119.145 42.4427C119.397 42.201 119.802 42.1871 120.057 42.4264L122.736 44.9511C122.954 45.1565 122.993 45.4865 122.805 45.7195C122.293 46.3569 121.656 46.9299 120.918 47.4383C120.002 48.0543 119.037 48.5044 118.001 48.8361C116.964 49.1442 115.927 49.31 114.89 49.31C113.853 49.31 112.888 49.1442 111.948 48.8361C111.007 48.5282 110.163 48.0543 109.392 47.391C108.62 46.7513 108.017 45.9222 107.535 44.9271C107.076 43.9321 106.739 42.7949 106.667 41.4919C106.667 41.4209 106.667 41.3971 106.667 41.2787C106.667 41.1602 106.667 41.0892 106.667 41.0892C106.667 39.3598 107.076 37.8672 107.873 36.6352C108.668 35.4033 109.705 34.4556 110.935 33.8397C112.189 33.2237 113.443 32.8921 114.721 32.8921C118.552 32.8921 121.279 34.6928 122.9 38.2941Z" fill="white"/>
</svg>
