<svg width="30" height="30" viewBox="0 0 30 30" fill="none" xmlns="http://www.w3.org/2000/svg">
<g clip-path="url(#clip0_42_672)">
<path d="M25.3964 5.46259C23.4514 4.56989 21.3989 3.93333 19.2901 3.56884C19.2709 3.5651 19.2509 3.56756 19.2332 3.57587C19.2155 3.58418 19.2008 3.59792 19.1914 3.61509C18.9289 4.08384 18.6364 4.69509 18.4314 5.17759C16.1581 4.83232 13.8458 4.83232 11.5726 5.17759C11.3445 4.64297 11.087 4.12134 10.8014 3.61509C10.7915 3.5983 10.7768 3.58489 10.7592 3.57664C10.7415 3.56838 10.7218 3.56566 10.7026 3.56884C8.59367 3.93257 6.54102 4.56916 4.59636 5.46259C4.5799 5.4695 4.56594 5.48128 4.55636 5.49634C0.666363 11.3076 -0.399888 16.9751 0.123863 22.5713C0.125135 22.5852 0.129228 22.5987 0.13589 22.611C0.142553 22.6232 0.151646 22.634 0.162613 22.6426C2.42711 24.3204 4.96025 25.6011 7.65386 26.4301C7.67285 26.4356 7.69306 26.4352 7.71181 26.4289C7.73056 26.4227 7.74697 26.4109 7.75886 26.3951C8.33794 25.6082 8.85055 24.7745 9.29136 23.9026C9.29751 23.8907 9.30106 23.8776 9.30177 23.8642C9.30248 23.8508 9.30035 23.8374 9.29551 23.8248C9.29066 23.8123 9.28322 23.801 9.27368 23.7915C9.26413 23.7821 9.25269 23.7748 9.24011 23.7701C8.43189 23.4608 7.64944 23.088 6.90011 22.6551C6.88638 22.6472 6.87482 22.6359 6.86646 22.6224C6.85811 22.609 6.85322 22.5936 6.85223 22.5778C6.85124 22.5619 6.85418 22.5461 6.86079 22.5317C6.8674 22.5173 6.87747 22.5047 6.89011 22.4951C7.04791 22.377 7.20295 22.2553 7.35511 22.1301C7.36842 22.1193 7.38447 22.1124 7.40147 22.1102C7.41846 22.108 7.43574 22.1106 7.45136 22.1176C12.3614 24.3588 17.6764 24.3588 22.5289 22.1176C22.5446 22.1103 22.5622 22.1076 22.5794 22.1098C22.5967 22.112 22.6129 22.1191 22.6264 22.1301C22.7764 22.2526 22.9339 22.3776 23.0926 22.4951C23.1051 22.5045 23.1151 22.5169 23.1218 22.5311C23.1284 22.5452 23.1315 22.5608 23.1308 22.5765C23.13 22.5921 23.1255 22.6073 23.1175 22.6208C23.1096 22.6343 23.0984 22.6456 23.0851 22.6538C22.3375 23.0908 21.5543 23.4638 20.7439 23.7688C20.7312 23.7737 20.7198 23.7811 20.7102 23.7907C20.7007 23.8002 20.6932 23.8117 20.6884 23.8243C20.6836 23.8369 20.6814 23.8504 20.6822 23.8639C20.6829 23.8774 20.6865 23.8906 20.6926 23.9026C21.1426 24.7751 21.6576 25.6051 22.2239 26.3938C22.2355 26.4099 22.2519 26.4219 22.2707 26.4282C22.2896 26.4345 22.3099 26.4347 22.3289 26.4288C25.027 25.6024 27.5642 24.3215 29.8314 22.6413C29.8424 22.6335 29.8517 22.6235 29.8586 22.6119C29.8654 22.6002 29.8698 22.5873 29.8714 22.5738C30.4964 16.1026 28.8239 10.4813 25.4351 5.49884C25.4272 5.48204 25.4134 5.46871 25.3964 5.46134V5.46259ZM10.0251 19.1626C8.54636 19.1626 7.32886 17.8063 7.32886 16.1388C7.32886 14.4726 8.52386 13.1151 10.0251 13.1151C11.5376 13.1151 12.7451 14.4851 12.7214 16.1401C12.7214 17.8063 11.5264 19.1626 10.0251 19.1626ZM19.9939 19.1626C18.5151 19.1626 17.2976 17.8063 17.2976 16.1388C17.2976 14.4726 18.4914 13.1151 19.9939 13.1151C21.5064 13.1151 22.7139 14.4851 22.6901 16.1401C22.6901 17.8063 21.5076 19.1626 19.9939 19.1626Z" fill="url(#paint0_linear_42_672)"/>
</g>
<defs>
<linearGradient id="paint0_linear_42_672" x1="6.09558" y1="33.8657" x2="-8.79151" y2="23.3903" gradientUnits="userSpaceOnUse">
<stop stop-color="#802B6A"/>
<stop offset="1" stop-color="#5E84D2"/>
</linearGradient>
<clipPath id="clip0_42_672">
<rect width="30" height="30" fill="white"/>
</clipPath>
</defs>
</svg>
