<svg width="30" height="30" viewBox="0 0 30 30" fill="none" xmlns="http://www.w3.org/2000/svg">
<path d="M27.2433 6.92355C26.8404 7.10227 26.4261 7.2531 26.0028 7.37556C26.5039 6.80879 26.886 6.1419 27.1193 5.41213C27.1716 5.24855 27.1174 5.0695 26.9829 4.96252C26.8486 4.85545 26.662 4.84263 26.5142 4.93025C25.6152 5.46343 24.6453 5.8466 23.6284 6.07066C22.604 5.06967 21.2126 4.5 19.7743 4.5C16.7381 4.5 14.268 6.97005 14.268 10.0061C14.268 10.2452 14.2831 10.483 14.3131 10.7175C10.5455 10.3867 7.04284 8.53491 4.63758 5.58448C4.55186 5.47931 4.41981 5.42264 4.28461 5.43348C4.14933 5.44407 4.02779 5.52035 3.95944 5.6376C3.47161 6.47468 3.2137 7.43207 3.2137 8.40617C3.2137 9.73291 3.68739 10.9917 4.52415 11.9753C4.26972 11.8872 4.02282 11.7771 3.78718 11.6463C3.66067 11.5759 3.50627 11.5769 3.38059 11.649C3.25483 11.7211 3.17598 11.8536 3.17267 11.9985C3.17209 12.0229 3.17209 12.0473 3.17209 12.0721C3.17209 14.0525 4.23795 15.8354 5.86752 16.8072C5.72752 16.7932 5.58761 16.773 5.4486 16.7464C5.3053 16.719 5.15794 16.7692 5.0613 16.8785C4.96449 16.9877 4.93247 17.14 4.97707 17.279C5.58024 19.1622 7.13319 20.5473 9.01057 20.9696C7.45348 21.9449 5.67283 22.4557 3.80356 22.4557C3.41352 22.4557 3.02125 22.4328 2.63734 22.3874C2.44662 22.3647 2.26426 22.4773 2.19931 22.6587C2.13436 22.8401 2.2032 23.0424 2.36545 23.1464C4.76682 24.6862 7.5435 25.5 10.3951 25.5C16.0011 25.5 19.5081 22.8564 21.4628 20.6387C23.9003 17.8735 25.2983 14.2133 25.2983 10.5968C25.2983 10.4457 25.296 10.2931 25.2914 10.1411C26.2531 9.41651 27.081 8.53963 27.7548 7.53177C27.8571 7.3787 27.8461 7.1764 27.7275 7.03549C27.6091 6.8945 27.4118 6.84891 27.2433 6.92355Z" fill="url(#paint0_linear_42_665)"/>
<defs>
<linearGradient id="paint0_linear_42_665" x1="7.38695" y1="32.325" x2="-5.92877" y2="23.6022" gradientUnits="userSpaceOnUse">
<stop stop-color="#802B6A"/>
<stop offset="1" stop-color="#5E84D2"/>
</linearGradient>
</defs>
</svg>
