<svg width="30" height="30" viewBox="0 0 30 30" fill="none" xmlns="http://www.w3.org/2000/svg">
<path d="M28.75 12.1376C28.8118 10.3484 28.4206 8.57262 27.6125 6.9751C27.0643 6.3196 26.3034 5.87724 25.4625 5.7251C21.9844 5.40951 18.4919 5.28016 15 5.3376C11.5208 5.27755 8.04092 5.40273 4.57503 5.7126C3.88981 5.83725 3.25568 6.15865 2.75003 6.6376C1.62503 7.6751 1.50003 9.4501 1.37503 10.9501C1.19367 13.6471 1.19367 16.3531 1.37503 19.0501C1.4112 19.8944 1.5369 20.7324 1.75003 21.5501C1.90075 22.1814 2.20569 22.7655 2.63753 23.2501C3.14662 23.7544 3.79551 24.0941 4.50003 24.2251C7.19493 24.5577 9.91031 24.6956 12.625 24.6376C17 24.7001 20.8375 24.6376 25.375 24.2876C26.0969 24.1647 26.764 23.8245 27.2875 23.3126C27.6375 22.9625 27.8989 22.534 28.05 22.0626C28.4971 20.6909 28.7166 19.2552 28.7 17.8126C28.75 17.1126 28.75 12.8876 28.75 12.1376ZM12.175 18.5626V10.8251L19.575 14.7126C17.5 15.8626 14.7625 17.1626 12.175 18.5626Z" fill="url(#paint0_linear_42_702)"/>
<defs>
<linearGradient id="paint0_linear_42_702" x1="6.83044" y1="30.9432" x2="-6.06988" y2="21.0969" gradientUnits="userSpaceOnUse">
<stop stop-color="#802B6A"/>
<stop offset="1" stop-color="#5E84D2"/>
</linearGradient>
</defs>
</svg>
